<?xml version="1.0" encoding="utf-8" standalone="no"?>
<!DOCTYPE svg PUBLIC "-//W3C//DTD SVG 1.1//EN"
  "http://www.w3.org/Graphics/SVG/1.1/DTD/svg11.dtd">
<!-- Created with matplotlib (https://matplotlib.org/) -->
<svg height="270.01625pt" version="1.1" viewBox="0 0 395.665625 270.01625" width="395.665625pt" xmlns="http://www.w3.org/2000/svg" xmlns:xlink="http://www.w3.org/1999/xlink">
 <defs>
  <style type="text/css">
*{stroke-linecap:butt;stroke-linejoin:round;}
  </style>
 </defs>
 <g id="figure_1">
  <g id="patch_1">
   <path d="M 0 270.01625 
L 395.665625 270.01625 
L 395.665625 0 
L 0 0 
z
" style="fill:#ffffff;"/>
  </g>
  <g id="axes_1">
   <g id="patch_2">
    <path d="M 50.165625 232.46 
L 384.965625 232.46 
L 384.965625 10.7 
L 50.165625 10.7 
z
" style="fill:#ffffff;"/>
   </g>
   <g id="matplotlib.axis_1">
    <g id="xtick_1">
     <g id="line2d_1">
      <defs>
       <path d="M 0 0 
L 0 3.5 
" id="mfa59e7d9d2" style="stroke:#000000;stroke-width:0.8;"/>
      </defs>
      <g>
       <use style="stroke:#000000;stroke-width:0.8;" x="65.383807" xlink:href="#mfa59e7d9d2" y="232.46"/>
      </g>
     </g>
     <g id="text_1">
      <!-- 0 -->
      <defs>
       <path d="M 31.78125 66.40625 
Q 24.171875 66.40625 20.328125 58.90625 
Q 16.5 51.421875 16.5 36.375 
Q 16.5 21.390625 20.328125 13.890625 
Q 24.171875 6.390625 31.78125 6.390625 
Q 39.453125 6.390625 43.28125 13.890625 
Q 47.125 21.390625 47.125 36.375 
Q 47.125 51.421875 43.28125 58.90625 
Q 39.453125 66.40625 31.78125 66.40625 
z
M 31.78125 74.21875 
Q 44.046875 74.21875 50.515625 64.515625 
Q 56.984375 54.828125 56.984375 36.375 
Q 56.984375 17.96875 50.515625 8.265625 
Q 44.046875 -1.421875 31.78125 -1.421875 
Q 19.53125 -1.421875 13.0625 8.265625 
Q 6.59375 17.96875 6.59375 36.375 
Q 6.59375 54.828125 13.0625 64.515625 
Q 19.53125 74.21875 31.78125 74.21875 
z
" id="DejaVuSans-48"/>
      </defs>
      <g transform="translate(62.202557 247.058437)scale(0.1 -0.1)">
       <use xlink:href="#DejaVuSans-48"/>
      </g>
     </g>
    </g>
    <g id="xtick_2">
     <g id="line2d_2">
      <g>
       <use style="stroke:#000000;stroke-width:0.8;" x="126.87141" xlink:href="#mfa59e7d9d2" y="232.46"/>
      </g>
     </g>
     <g id="text_2">
      <!-- 20 -->
      <defs>
       <path d="M 19.1875 8.296875 
L 53.609375 8.296875 
L 53.609375 0 
L 7.328125 0 
L 7.328125 8.296875 
Q 12.9375 14.109375 22.625 23.890625 
Q 32.328125 33.6875 34.8125 36.53125 
Q 39.546875 41.84375 41.421875 45.53125 
Q 43.3125 49.21875 43.3125 52.78125 
Q 43.3125 58.59375 39.234375 62.25 
Q 35.15625 65.921875 28.609375 65.921875 
Q 23.96875 65.921875 18.8125 64.3125 
Q 13.671875 62.703125 7.8125 59.421875 
L 7.8125 69.390625 
Q 13.765625 71.78125 18.9375 73 
Q 24.125 74.21875 28.421875 74.21875 
Q 39.75 74.21875 46.484375 68.546875 
Q 53.21875 62.890625 53.21875 53.421875 
Q 53.21875 48.921875 51.53125 44.890625 
Q 49.859375 40.875 45.40625 35.40625 
Q 44.1875 33.984375 37.640625 27.21875 
Q 31.109375 20.453125 19.1875 8.296875 
z
" id="DejaVuSans-50"/>
      </defs>
      <g transform="translate(120.50891 247.058437)scale(0.1 -0.1)">
       <use xlink:href="#DejaVuSans-50"/>
       <use x="63.623047" xlink:href="#DejaVuSans-48"/>
      </g>
     </g>
    </g>
    <g id="xtick_3">
     <g id="line2d_3">
      <g>
       <use style="stroke:#000000;stroke-width:0.8;" x="188.359013" xlink:href="#mfa59e7d9d2" y="232.46"/>
      </g>
     </g>
     <g id="text_3">
      <!-- 40 -->
      <defs>
       <path d="M 37.796875 64.3125 
L 12.890625 25.390625 
L 37.796875 25.390625 
z
M 35.203125 72.90625 
L 47.609375 72.90625 
L 47.609375 25.390625 
L 58.015625 25.390625 
L 58.015625 17.1875 
L 47.609375 17.1875 
L 47.609375 0 
L 37.796875 0 
L 37.796875 17.1875 
L 4.890625 17.1875 
L 4.890625 26.703125 
z
" id="DejaVuSans-52"/>
      </defs>
      <g transform="translate(181.996513 247.058437)scale(0.1 -0.1)">
       <use xlink:href="#DejaVuSans-52"/>
       <use x="63.623047" xlink:href="#DejaVuSans-48"/>
      </g>
     </g>
    </g>
    <g id="xtick_4">
     <g id="line2d_4">
      <g>
       <use style="stroke:#000000;stroke-width:0.8;" x="249.846617" xlink:href="#mfa59e7d9d2" y="232.46"/>
      </g>
     </g>
     <g id="text_4">
      <!-- 60 -->
      <defs>
       <path d="M 33.015625 40.375 
Q 26.375 40.375 22.484375 35.828125 
Q 18.609375 31.296875 18.609375 23.390625 
Q 18.609375 15.53125 22.484375 10.953125 
Q 26.375 6.390625 33.015625 6.390625 
Q 39.65625 6.390625 43.53125 10.953125 
Q 47.40625 15.53125 47.40625 23.390625 
Q 47.40625 31.296875 43.53125 35.828125 
Q 39.65625 40.375 33.015625 40.375 
z
M 52.59375 71.296875 
L 52.59375 62.3125 
Q 48.875 64.0625 45.09375 64.984375 
Q 41.3125 65.921875 37.59375 65.921875 
Q 27.828125 65.921875 22.671875 59.328125 
Q 17.53125 52.734375 16.796875 39.40625 
Q 19.671875 43.65625 24.015625 45.921875 
Q 28.375 48.1875 33.59375 48.1875 
Q 44.578125 48.1875 50.953125 41.515625 
Q 57.328125 34.859375 57.328125 23.390625 
Q 57.328125 12.15625 50.6875 5.359375 
Q 44.046875 -1.421875 33.015625 -1.421875 
Q 20.359375 -1.421875 13.671875 8.265625 
Q 6.984375 17.96875 6.984375 36.375 
Q 6.984375 53.65625 15.1875 63.9375 
Q 23.390625 74.21875 37.203125 74.21875 
Q 40.921875 74.21875 44.703125 73.484375 
Q 48.484375 72.75 52.59375 71.296875 
z
" id="DejaVuSans-54"/>
      </defs>
      <g transform="translate(243.484117 247.058437)scale(0.1 -0.1)">
       <use xlink:href="#DejaVuSans-54"/>
       <use x="63.623047" xlink:href="#DejaVuSans-48"/>
      </g>
     </g>
    </g>
    <g id="xtick_5">
     <g id="line2d_5">
      <g>
       <use style="stroke:#000000;stroke-width:0.8;" x="311.33422" xlink:href="#mfa59e7d9d2" y="232.46"/>
      </g>
     </g>
     <g id="text_5">
      <!-- 80 -->
      <defs>
       <path d="M 31.78125 34.625 
Q 24.75 34.625 20.71875 30.859375 
Q 16.703125 27.09375 16.703125 20.515625 
Q 16.703125 13.921875 20.71875 10.15625 
Q 24.75 6.390625 31.78125 6.390625 
Q 38.8125 6.390625 42.859375 10.171875 
Q 46.921875 13.96875 46.921875 20.515625 
Q 46.921875 27.09375 42.890625 30.859375 
Q 38.875 34.625 31.78125 34.625 
z
M 21.921875 38.8125 
Q 15.578125 40.375 12.03125 44.71875 
Q 8.5 49.078125 8.5 55.328125 
Q 8.5 64.0625 14.71875 69.140625 
Q 20.953125 74.21875 31.78125 74.21875 
Q 42.671875 74.21875 48.875 69.140625 
Q 55.078125 64.0625 55.078125 55.328125 
Q 55.078125 49.078125 51.53125 44.71875 
Q 48 40.375 41.703125 38.8125 
Q 48.828125 37.15625 52.796875 32.3125 
Q 56.78125 27.484375 56.78125 20.515625 
Q 56.78125 9.90625 50.3125 4.234375 
Q 43.84375 -1.421875 31.78125 -1.421875 
Q 19.734375 -1.421875 13.25 4.234375 
Q 6.78125 9.90625 6.78125 20.515625 
Q 6.78125 27.484375 10.78125 32.3125 
Q 14.796875 37.15625 21.921875 38.8125 
z
M 18.3125 54.390625 
Q 18.3125 48.734375 21.84375 45.5625 
Q 25.390625 42.390625 31.78125 42.390625 
Q 38.140625 42.390625 41.71875 45.5625 
Q 45.3125 48.734375 45.3125 54.390625 
Q 45.3125 60.0625 41.71875 63.234375 
Q 38.140625 66.40625 31.78125 66.40625 
Q 25.390625 66.40625 21.84375 63.234375 
Q 18.3125 60.0625 18.3125 54.390625 
z
" id="DejaVuSans-56"/>
      </defs>
      <g transform="translate(304.97172 247.058437)scale(0.1 -0.1)">
       <use xlink:href="#DejaVuSans-56"/>
       <use x="63.623047" xlink:href="#DejaVuSans-48"/>
      </g>
     </g>
    </g>
    <g id="xtick_6">
     <g id="line2d_6">
      <g>
       <use style="stroke:#000000;stroke-width:0.8;" x="372.821823" xlink:href="#mfa59e7d9d2" y="232.46"/>
      </g>
     </g>
     <g id="text_6">
      <!-- 100 -->
      <defs>
       <path d="M 12.40625 8.296875 
L 28.515625 8.296875 
L 28.515625 63.921875 
L 10.984375 60.40625 
L 10.984375 69.390625 
L 28.421875 72.90625 
L 38.28125 72.90625 
L 38.28125 8.296875 
L 54.390625 8.296875 
L 54.390625 0 
L 12.40625 0 
z
" id="DejaVuSans-49"/>
      </defs>
      <g transform="translate(363.278073 247.058437)scale(0.1 -0.1)">
       <use xlink:href="#DejaVuSans-49"/>
       <use x="63.623047" xlink:href="#DejaVuSans-48"/>
       <use x="127.246094" xlink:href="#DejaVuSans-48"/>
      </g>
     </g>
    </g>
    <g id="text_7">
     <!-- $k$ -->
     <defs>
      <path d="M 18.3125 75.984375 
L 27.296875 75.984375 
L 18.703125 31.6875 
L 49.515625 54.6875 
L 61.1875 54.6875 
L 26.8125 28.515625 
L 51.90625 0 
L 41.015625 0 
L 17.671875 26.703125 
L 12.5 0 
L 3.515625 0 
z
" id="DejaVuSans-Oblique-107"/>
     </defs>
     <g transform="translate(214.665625 260.736562)scale(0.1 -0.1)">
      <use transform="translate(0 0.015625)" xlink:href="#DejaVuSans-Oblique-107"/>
     </g>
    </g>
   </g>
   <g id="matplotlib.axis_2">
    <g id="ytick_1">
     <g id="line2d_7">
      <defs>
       <path d="M 0 0 
L -3.5 0 
" id="m2492905bca" style="stroke:#000000;stroke-width:0.8;"/>
      </defs>
      <g>
       <use style="stroke:#000000;stroke-width:0.8;" x="50.165625" xlink:href="#m2492905bca" y="222.38"/>
      </g>
     </g>
     <g id="text_8">
      <!-- 0.00 -->
      <defs>
       <path d="M 10.6875 12.40625 
L 21 12.40625 
L 21 0 
L 10.6875 0 
z
" id="DejaVuSans-46"/>
      </defs>
      <g transform="translate(20.9 226.179219)scale(0.1 -0.1)">
       <use xlink:href="#DejaVuSans-48"/>
       <use x="63.623047" xlink:href="#DejaVuSans-46"/>
       <use x="95.410156" xlink:href="#DejaVuSans-48"/>
       <use x="159.033203" xlink:href="#DejaVuSans-48"/>
      </g>
     </g>
    </g>
    <g id="ytick_2">
     <g id="line2d_8">
      <g>
       <use style="stroke:#000000;stroke-width:0.8;" x="50.165625" xlink:href="#m2492905bca" y="184.392436"/>
      </g>
     </g>
     <g id="text_9">
      <!-- 0.02 -->
      <g transform="translate(20.9 188.191655)scale(0.1 -0.1)">
       <use xlink:href="#DejaVuSans-48"/>
       <use x="63.623047" xlink:href="#DejaVuSans-46"/>
       <use x="95.410156" xlink:href="#DejaVuSans-48"/>
       <use x="159.033203" xlink:href="#DejaVuSans-50"/>
      </g>
     </g>
    </g>
    <g id="ytick_3">
     <g id="line2d_9">
      <g>
       <use style="stroke:#000000;stroke-width:0.8;" x="50.165625" xlink:href="#m2492905bca" y="146.404873"/>
      </g>
     </g>
     <g id="text_10">
      <!-- 0.04 -->
      <g transform="translate(20.9 150.204092)scale(0.1 -0.1)">
       <use xlink:href="#DejaVuSans-48"/>
       <use x="63.623047" xlink:href="#DejaVuSans-46"/>
       <use x="95.410156" xlink:href="#DejaVuSans-48"/>
       <use x="159.033203" xlink:href="#DejaVuSans-52"/>
      </g>
     </g>
    </g>
    <g id="ytick_4">
     <g id="line2d_10">
      <g>
       <use style="stroke:#000000;stroke-width:0.8;" x="50.165625" xlink:href="#m2492905bca" y="108.417309"/>
      </g>
     </g>
     <g id="text_11">
      <!-- 0.06 -->
      <g transform="translate(20.9 112.216528)scale(0.1 -0.1)">
       <use xlink:href="#DejaVuSans-48"/>
       <use x="63.623047" xlink:href="#DejaVuSans-46"/>
       <use x="95.410156" xlink:href="#DejaVuSans-48"/>
       <use x="159.033203" xlink:href="#DejaVuSans-54"/>
      </g>
     </g>
    </g>
    <g id="ytick_5">
     <g id="line2d_11">
      <g>
       <use style="stroke:#000000;stroke-width:0.8;" x="50.165625" xlink:href="#m2492905bca" y="70.429746"/>
      </g>
     </g>
     <g id="text_12">
      <!-- 0.08 -->
      <g transform="translate(20.9 74.228964)scale(0.1 -0.1)">
       <use xlink:href="#DejaVuSans-48"/>
       <use x="63.623047" xlink:href="#DejaVuSans-46"/>
       <use x="95.410156" xlink:href="#DejaVuSans-48"/>
       <use x="159.033203" xlink:href="#DejaVuSans-56"/>
      </g>
     </g>
    </g>
    <g id="ytick_6">
     <g id="line2d_12">
      <g>
       <use style="stroke:#000000;stroke-width:0.8;" x="50.165625" xlink:href="#m2492905bca" y="32.442182"/>
      </g>
     </g>
     <g id="text_13">
      <!-- 0.10 -->
      <g transform="translate(20.9 36.241401)scale(0.1 -0.1)">
       <use xlink:href="#DejaVuSans-48"/>
       <use x="63.623047" xlink:href="#DejaVuSans-46"/>
       <use x="95.410156" xlink:href="#DejaVuSans-49"/>
       <use x="159.033203" xlink:href="#DejaVuSans-48"/>
      </g>
     </g>
    </g>
    <g id="text_14">
     <!-- $\mathbb{P}(deg(v) = k)$ -->
     <defs>
      <path d="M 19.203125 65.296875 
L 52.5 65.296875 
Q 59.796875 65.296875 64.1875 60.84375 
Q 68.59375 56.40625 68.59375 49.09375 
Q 68.59375 39.59375 63 33.09375 
Q 55.796875 24.703125 40.703125 24.703125 
L 23.703125 24.703125 
L 17.09375 0 
L 1.703125 0 
z
M 60.5 59.5 
L 52.40625 29.90625 
Q 58.09375 31.59375 61.5 37.1875 
Q 64.90625 42.796875 64.90625 49 
Q 64.90625 55.59375 60.5 59.5 
z
M 48.59375 29.296875 
L 57.09375 60.59375 
Q 54.796875 61.59375 51.296875 61.59375 
L 33.59375 61.59375 
L 24.703125 28.40625 
L 40.59375 28.40625 
Q 45.90625 28.40625 48.59375 29.296875 
z
M 29.796875 61.59375 
L 22 61.59375 
L 6.5 3.703125 
L 14.296875 3.703125 
z
" id="STIXGeneral-Italic-8473"/>
      <path d="M 31 75.875 
Q 24.46875 64.65625 21.28125 53.65625 
Q 18.109375 42.671875 18.109375 31.390625 
Q 18.109375 20.125 21.3125 9.0625 
Q 24.515625 -2 31 -13.1875 
L 23.1875 -13.1875 
Q 15.875 -1.703125 12.234375 9.375 
Q 8.59375 20.453125 8.59375 31.390625 
Q 8.59375 42.28125 12.203125 53.3125 
Q 15.828125 64.359375 23.1875 75.875 
z
" id="DejaVuSans-40"/>
      <path d="M 41.796875 8.203125 
Q 38.1875 3.46875 33.25 1.015625 
Q 28.328125 -1.421875 22.3125 -1.421875 
Q 14.109375 -1.421875 9.34375 4.171875 
Q 4.59375 9.765625 4.59375 19.484375 
Q 4.59375 27.59375 7.46875 34.9375 
Q 10.359375 42.28125 15.828125 48.09375 
Q 19.4375 51.953125 23.96875 53.96875 
Q 28.515625 56 33.5 56 
Q 38.765625 56 42.796875 53.453125 
Q 46.828125 50.921875 49.03125 46.1875 
L 54.890625 75.984375 
L 63.921875 75.984375 
L 49.125 0 
L 40.09375 0 
z
M 13.921875 21.09375 
Q 13.921875 14.015625 17.109375 10.0625 
Q 20.3125 6.109375 25.984375 6.109375 
Q 30.171875 6.109375 33.765625 8.125 
Q 37.359375 10.15625 40.09375 14.109375 
Q 42.96875 18.21875 44.625 23.578125 
Q 46.296875 28.953125 46.296875 34.1875 
Q 46.296875 40.96875 43.09375 44.765625 
Q 39.890625 48.578125 34.28125 48.578125 
Q 30.03125 48.578125 26.359375 46.578125 
Q 22.703125 44.578125 20.125 40.828125 
Q 17.28125 36.765625 15.59375 31.390625 
Q 13.921875 26.03125 13.921875 21.09375 
z
" id="DejaVuSans-Oblique-100"/>
      <path d="M 48.09375 32.234375 
Q 48.25 33.015625 48.3125 33.84375 
Q 48.390625 34.671875 48.390625 35.5 
Q 48.390625 41.453125 44.890625 44.921875 
Q 41.40625 48.390625 35.40625 48.390625 
Q 28.71875 48.390625 23.578125 44.15625 
Q 18.453125 39.9375 15.828125 32.171875 
z
M 55.90625 25.203125 
L 14.109375 25.203125 
Q 13.8125 23.34375 13.71875 22.265625 
Q 13.625 21.1875 13.625 20.40625 
Q 13.625 13.625 17.796875 9.90625 
Q 21.96875 6.203125 29.59375 6.203125 
Q 35.453125 6.203125 40.671875 7.515625 
Q 45.90625 8.84375 50.390625 11.375 
L 48.6875 2.484375 
Q 43.84375 0.53125 38.6875 -0.4375 
Q 33.546875 -1.421875 28.21875 -1.421875 
Q 16.84375 -1.421875 10.71875 4.015625 
Q 4.59375 9.46875 4.59375 19.484375 
Q 4.59375 28.03125 7.640625 35.375 
Q 10.6875 42.71875 16.609375 48.484375 
Q 20.40625 52.09375 25.65625 54.046875 
Q 30.90625 56 36.8125 56 
Q 46.09375 56 51.578125 50.4375 
Q 57.078125 44.875 57.078125 35.5 
Q 57.078125 33.25 56.78125 30.6875 
Q 56.5 28.125 55.90625 25.203125 
z
" id="DejaVuSans-Oblique-101"/>
      <path d="M 59.625 54.6875 
L 50.296875 6.78125 
Q 47.609375 -7.125 40.015625 -13.953125 
Q 32.421875 -20.796875 19.578125 -20.796875 
Q 14.84375 -20.796875 10.78125 -20.09375 
Q 6.734375 -19.390625 3.21875 -17.921875 
L 4.890625 -9.1875 
Q 8.203125 -11.328125 11.90625 -12.34375 
Q 15.625 -13.375 19.828125 -13.375 
Q 28.375 -13.375 33.859375 -8.703125 
Q 39.359375 -4.046875 41.109375 4.6875 
L 41.890625 8.796875 
Q 38.140625 4.5 33.15625 2.25 
Q 28.171875 0 22.40625 0 
Q 14.109375 0 9.34375 5.484375 
Q 4.59375 10.984375 4.59375 20.609375 
Q 4.59375 28.171875 7.46875 35.421875 
Q 10.359375 42.671875 15.578125 48.296875 
Q 19.046875 52 23.65625 54 
Q 28.265625 56 33.296875 56 
Q 38.8125 56 42.90625 53.4375 
Q 47.015625 50.875 49.03125 46.1875 
L 50.59375 54.6875 
z
M 46.09375 34.625 
Q 46.09375 41.265625 42.96875 44.875 
Q 39.84375 48.484375 34.078125 48.484375 
Q 30.515625 48.484375 27.296875 47.0625 
Q 24.078125 45.65625 21.78125 43.109375 
Q 18.0625 38.921875 15.984375 33.234375 
Q 13.921875 27.546875 13.921875 21.484375 
Q 13.921875 14.75 17.0625 11.125 
Q 20.21875 7.515625 26.125 7.515625 
Q 34.671875 7.515625 40.375 15.25 
Q 46.09375 23 46.09375 34.625 
z
" id="DejaVuSans-Oblique-103"/>
      <path d="M 7.171875 54.6875 
L 16.703125 54.6875 
L 24.703125 8.203125 
L 50.875 54.6875 
L 60.40625 54.6875 
L 29.296875 0 
L 17.1875 0 
z
" id="DejaVuSans-Oblique-118"/>
      <path d="M 8.015625 75.875 
L 15.828125 75.875 
Q 23.140625 64.359375 26.78125 53.3125 
Q 30.421875 42.28125 30.421875 31.390625 
Q 30.421875 20.453125 26.78125 9.375 
Q 23.140625 -1.703125 15.828125 -13.1875 
L 8.015625 -13.1875 
Q 14.5 -2 17.703125 9.0625 
Q 20.90625 20.125 20.90625 31.390625 
Q 20.90625 42.671875 17.703125 53.65625 
Q 14.5 64.65625 8.015625 75.875 
z
" id="DejaVuSans-41"/>
      <path d="M 10.59375 45.40625 
L 73.1875 45.40625 
L 73.1875 37.203125 
L 10.59375 37.203125 
z
M 10.59375 25.484375 
L 73.1875 25.484375 
L 73.1875 17.1875 
L 10.59375 17.1875 
z
" id="DejaVuSans-61"/>
     </defs>
     <g transform="translate(14.8 154.28)rotate(-90)scale(0.1 -0.1)">
      <use transform="translate(0 0.015625)" xlink:href="#STIXGeneral-Italic-8473"/>
      <use transform="translate(68.699982 0.015625)" xlink:href="#DejaVuSans-40"/>
      <use transform="translate(107.713654 0.015625)" xlink:href="#DejaVuSans-Oblique-100"/>
      <use transform="translate(171.190216 0.015625)" xlink:href="#DejaVuSans-Oblique-101"/>
      <use transform="translate(232.713654 0.015625)" xlink:href="#DejaVuSans-Oblique-103"/>
      <use transform="translate(296.190216 0.015625)" xlink:href="#DejaVuSans-40"/>
      <use transform="translate(335.203888 0.015625)" xlink:href="#DejaVuSans-Oblique-118"/>
      <use transform="translate(394.383575 0.015625)" xlink:href="#DejaVuSans-41"/>
      <use transform="translate(452.879669 0.015625)" xlink:href="#DejaVuSans-61"/>
      <use transform="translate(556.151154 0.015625)" xlink:href="#DejaVuSans-Oblique-107"/>
      <use transform="translate(614.06131 0.015625)" xlink:href="#DejaVuSans-41"/>
     </g>
    </g>
   </g>
   <g id="line2d_13">
    <defs>
     <path d="M 0 3 
C 0.795609 3 1.55874 2.683901 2.12132 2.12132 
C 2.683901 1.55874 3 0.795609 3 0 
C 3 -0.795609 2.683901 -1.55874 2.12132 -2.12132 
C 1.55874 -2.683901 0.795609 -3 0 -3 
C -0.795609 -3 -1.55874 -2.683901 -2.12132 -2.12132 
C -2.683901 -1.55874 -3 -0.795609 -3 0 
C -3 0.795609 -2.683901 1.55874 -2.12132 2.12132 
C -1.55874 2.683901 -0.795609 3 0 3 
z
" id="md976cfe072" style="stroke:#0000ff;"/>
    </defs>
    <g clip-path="url(#pc7ef9cd12b)">
     <use style="fill:#0000ff;stroke:#0000ff;" x="65.383807" xlink:href="#md976cfe072" y="222.38"/>
     <use style="fill:#0000ff;stroke:#0000ff;" x="68.458187" xlink:href="#md976cfe072" y="222.38"/>
     <use style="fill:#0000ff;stroke:#0000ff;" x="71.532567" xlink:href="#md976cfe072" y="222.38"/>
     <use style="fill:#0000ff;stroke:#0000ff;" x="74.606947" xlink:href="#md976cfe072" y="222.38"/>
     <use style="fill:#0000ff;stroke:#0000ff;" x="77.681327" xlink:href="#md976cfe072" y="222.38"/>
     <use style="fill:#0000ff;stroke:#0000ff;" x="80.755708" xlink:href="#md976cfe072" y="222.38"/>
     <use style="fill:#0000ff;stroke:#0000ff;" x="83.830088" xlink:href="#md976cfe072" y="222.285031"/>
     <use style="fill:#0000ff;stroke:#0000ff;" x="86.904468" xlink:href="#md976cfe072" y="222.152075"/>
     <use style="fill:#0000ff;stroke:#0000ff;" x="89.978848" xlink:href="#md976cfe072" y="221.848174"/>
     <use style="fill:#0000ff;stroke:#0000ff;" x="93.053228" xlink:href="#md976cfe072" y="220.537603"/>
     <use style="fill:#0000ff;stroke:#0000ff;" x="96.127608" xlink:href="#md976cfe072" y="218.467281"/>
     <use style="fill:#0000ff;stroke:#0000ff;" x="99.201989" xlink:href="#md976cfe072" y="212.883109"/>
     <use style="fill:#0000ff;stroke:#0000ff;" x="102.276369" xlink:href="#md976cfe072" y="202.89238"/>
     <use style="fill:#0000ff;stroke:#0000ff;" x="105.350749" xlink:href="#md976cfe072" y="187.507417"/>
     <use style="fill:#0000ff;stroke:#0000ff;" x="108.425129" xlink:href="#md976cfe072" y="164.942804"/>
     <use style="fill:#0000ff;stroke:#0000ff;" x="111.499509" xlink:href="#md976cfe072" y="137.040938"/>
     <use style="fill:#0000ff;stroke:#0000ff;" x="114.573889" xlink:href="#md976cfe072" y="101.009734"/>
     <use style="fill:#0000ff;stroke:#0000ff;" x="117.64827" xlink:href="#md976cfe072" y="67.675647"/>
     <use style="fill:#0000ff;stroke:#0000ff;" x="120.72265" xlink:href="#md976cfe072" y="45.395941"/>
     <use style="fill:#0000ff;stroke:#0000ff;" x="123.79703" xlink:href="#md976cfe072" y="22.280509"/>
     <use style="fill:#0000ff;stroke:#0000ff;" x="126.87141" xlink:href="#md976cfe072" y="20.78"/>
     <use style="fill:#0000ff;stroke:#0000ff;" x="129.94579" xlink:href="#md976cfe072" y="33.049983"/>
     <use style="fill:#0000ff;stroke:#0000ff;" x="133.02017" xlink:href="#md976cfe072" y="52.784522"/>
     <use style="fill:#0000ff;stroke:#0000ff;" x="136.094551" xlink:href="#md976cfe072" y="80.990288"/>
     <use style="fill:#0000ff;stroke:#0000ff;" x="139.168931" xlink:href="#md976cfe072" y="113.602612"/>
     <use style="fill:#0000ff;stroke:#0000ff;" x="142.243311" xlink:href="#md976cfe072" y="141.865359"/>
     <use style="fill:#0000ff;stroke:#0000ff;" x="145.317691" xlink:href="#md976cfe072" y="165.892493"/>
     <use style="fill:#0000ff;stroke:#0000ff;" x="148.392071" xlink:href="#md976cfe072" y="187.146535"/>
     <use style="fill:#0000ff;stroke:#0000ff;" x="151.466451" xlink:href="#md976cfe072" y="199.834381"/>
     <use style="fill:#0000ff;stroke:#0000ff;" x="154.540832" xlink:href="#md976cfe072" y="209.160328"/>
     <use style="fill:#0000ff;stroke:#0000ff;" x="157.615212" xlink:href="#md976cfe072" y="215.20035"/>
     <use style="fill:#0000ff;stroke:#0000ff;" x="160.689592" xlink:href="#md976cfe072" y="218.581244"/>
     <use style="fill:#0000ff;stroke:#0000ff;" x="163.763972" xlink:href="#md976cfe072" y="220.347665"/>
     <use style="fill:#0000ff;stroke:#0000ff;" x="166.838352" xlink:href="#md976cfe072" y="221.639243"/>
     <use style="fill:#0000ff;stroke:#0000ff;" x="169.912732" xlink:href="#md976cfe072" y="221.981131"/>
     <use style="fill:#0000ff;stroke:#0000ff;" x="172.987113" xlink:href="#md976cfe072" y="222.304025"/>
     <use style="fill:#0000ff;stroke:#0000ff;" x="176.061493" xlink:href="#md976cfe072" y="222.342012"/>
     <use style="fill:#0000ff;stroke:#0000ff;" x="179.135873" xlink:href="#md976cfe072" y="222.361006"/>
     <use style="fill:#0000ff;stroke:#0000ff;" x="182.210253" xlink:href="#md976cfe072" y="222.38"/>
     <use style="fill:#0000ff;stroke:#0000ff;" x="185.284633" xlink:href="#md976cfe072" y="222.38"/>
     <use style="fill:#0000ff;stroke:#0000ff;" x="188.359013" xlink:href="#md976cfe072" y="222.38"/>
     <use style="fill:#0000ff;stroke:#0000ff;" x="191.433394" xlink:href="#md976cfe072" y="222.38"/>
     <use style="fill:#0000ff;stroke:#0000ff;" x="194.507774" xlink:href="#md976cfe072" y="222.38"/>
     <use style="fill:#0000ff;stroke:#0000ff;" x="197.582154" xlink:href="#md976cfe072" y="222.38"/>
     <use style="fill:#0000ff;stroke:#0000ff;" x="200.656534" xlink:href="#md976cfe072" y="222.38"/>
     <use style="fill:#0000ff;stroke:#0000ff;" x="203.730914" xlink:href="#md976cfe072" y="222.38"/>
     <use style="fill:#0000ff;stroke:#0000ff;" x="206.805294" xlink:href="#md976cfe072" y="222.38"/>
     <use style="fill:#0000ff;stroke:#0000ff;" x="209.879675" xlink:href="#md976cfe072" y="222.38"/>
     <use style="fill:#0000ff;stroke:#0000ff;" x="212.954055" xlink:href="#md976cfe072" y="222.38"/>
     <use style="fill:#0000ff;stroke:#0000ff;" x="216.028435" xlink:href="#md976cfe072" y="222.38"/>
     <use style="fill:#0000ff;stroke:#0000ff;" x="219.102815" xlink:href="#md976cfe072" y="222.38"/>
     <use style="fill:#0000ff;stroke:#0000ff;" x="222.177195" xlink:href="#md976cfe072" y="222.38"/>
     <use style="fill:#0000ff;stroke:#0000ff;" x="225.251575" xlink:href="#md976cfe072" y="222.38"/>
     <use style="fill:#0000ff;stroke:#0000ff;" x="228.325956" xlink:href="#md976cfe072" y="222.38"/>
     <use style="fill:#0000ff;stroke:#0000ff;" x="231.400336" xlink:href="#md976cfe072" y="222.38"/>
     <use style="fill:#0000ff;stroke:#0000ff;" x="234.474716" xlink:href="#md976cfe072" y="222.38"/>
     <use style="fill:#0000ff;stroke:#0000ff;" x="237.549096" xlink:href="#md976cfe072" y="222.38"/>
     <use style="fill:#0000ff;stroke:#0000ff;" x="240.623476" xlink:href="#md976cfe072" y="222.38"/>
     <use style="fill:#0000ff;stroke:#0000ff;" x="243.697856" xlink:href="#md976cfe072" y="222.38"/>
     <use style="fill:#0000ff;stroke:#0000ff;" x="246.772237" xlink:href="#md976cfe072" y="222.38"/>
     <use style="fill:#0000ff;stroke:#0000ff;" x="249.846617" xlink:href="#md976cfe072" y="222.38"/>
     <use style="fill:#0000ff;stroke:#0000ff;" x="252.920997" xlink:href="#md976cfe072" y="222.38"/>
     <use style="fill:#0000ff;stroke:#0000ff;" x="255.995377" xlink:href="#md976cfe072" y="222.38"/>
     <use style="fill:#0000ff;stroke:#0000ff;" x="259.069757" xlink:href="#md976cfe072" y="222.38"/>
     <use style="fill:#0000ff;stroke:#0000ff;" x="262.144137" xlink:href="#md976cfe072" y="222.38"/>
     <use style="fill:#0000ff;stroke:#0000ff;" x="265.218518" xlink:href="#md976cfe072" y="222.38"/>
     <use style="fill:#0000ff;stroke:#0000ff;" x="268.292898" xlink:href="#md976cfe072" y="222.38"/>
     <use style="fill:#0000ff;stroke:#0000ff;" x="271.367278" xlink:href="#md976cfe072" y="222.38"/>
     <use style="fill:#0000ff;stroke:#0000ff;" x="274.441658" xlink:href="#md976cfe072" y="222.38"/>
     <use style="fill:#0000ff;stroke:#0000ff;" x="277.516038" xlink:href="#md976cfe072" y="222.38"/>
     <use style="fill:#0000ff;stroke:#0000ff;" x="280.590418" xlink:href="#md976cfe072" y="222.38"/>
     <use style="fill:#0000ff;stroke:#0000ff;" x="283.664799" xlink:href="#md976cfe072" y="222.38"/>
     <use style="fill:#0000ff;stroke:#0000ff;" x="286.739179" xlink:href="#md976cfe072" y="222.38"/>
     <use style="fill:#0000ff;stroke:#0000ff;" x="289.813559" xlink:href="#md976cfe072" y="222.38"/>
     <use style="fill:#0000ff;stroke:#0000ff;" x="292.887939" xlink:href="#md976cfe072" y="222.38"/>
     <use style="fill:#0000ff;stroke:#0000ff;" x="295.962319" xlink:href="#md976cfe072" y="222.38"/>
     <use style="fill:#0000ff;stroke:#0000ff;" x="299.036699" xlink:href="#md976cfe072" y="222.38"/>
     <use style="fill:#0000ff;stroke:#0000ff;" x="302.11108" xlink:href="#md976cfe072" y="222.38"/>
     <use style="fill:#0000ff;stroke:#0000ff;" x="305.18546" xlink:href="#md976cfe072" y="222.38"/>
     <use style="fill:#0000ff;stroke:#0000ff;" x="308.25984" xlink:href="#md976cfe072" y="222.38"/>
     <use style="fill:#0000ff;stroke:#0000ff;" x="311.33422" xlink:href="#md976cfe072" y="222.38"/>
     <use style="fill:#0000ff;stroke:#0000ff;" x="314.4086" xlink:href="#md976cfe072" y="222.38"/>
     <use style="fill:#0000ff;stroke:#0000ff;" x="317.48298" xlink:href="#md976cfe072" y="222.38"/>
     <use style="fill:#0000ff;stroke:#0000ff;" x="320.557361" xlink:href="#md976cfe072" y="222.38"/>
     <use style="fill:#0000ff;stroke:#0000ff;" x="323.631741" xlink:href="#md976cfe072" y="222.38"/>
     <use style="fill:#0000ff;stroke:#0000ff;" x="326.706121" xlink:href="#md976cfe072" y="222.38"/>
     <use style="fill:#0000ff;stroke:#0000ff;" x="329.780501" xlink:href="#md976cfe072" y="222.38"/>
     <use style="fill:#0000ff;stroke:#0000ff;" x="332.854881" xlink:href="#md976cfe072" y="222.38"/>
     <use style="fill:#0000ff;stroke:#0000ff;" x="335.929261" xlink:href="#md976cfe072" y="222.38"/>
     <use style="fill:#0000ff;stroke:#0000ff;" x="339.003642" xlink:href="#md976cfe072" y="222.38"/>
     <use style="fill:#0000ff;stroke:#0000ff;" x="342.078022" xlink:href="#md976cfe072" y="222.38"/>
     <use style="fill:#0000ff;stroke:#0000ff;" x="345.152402" xlink:href="#md976cfe072" y="222.38"/>
     <use style="fill:#0000ff;stroke:#0000ff;" x="348.226782" xlink:href="#md976cfe072" y="222.38"/>
     <use style="fill:#0000ff;stroke:#0000ff;" x="351.301162" xlink:href="#md976cfe072" y="222.38"/>
     <use style="fill:#0000ff;stroke:#0000ff;" x="354.375542" xlink:href="#md976cfe072" y="222.38"/>
     <use style="fill:#0000ff;stroke:#0000ff;" x="357.449923" xlink:href="#md976cfe072" y="222.38"/>
     <use style="fill:#0000ff;stroke:#0000ff;" x="360.524303" xlink:href="#md976cfe072" y="222.38"/>
     <use style="fill:#0000ff;stroke:#0000ff;" x="363.598683" xlink:href="#md976cfe072" y="222.38"/>
     <use style="fill:#0000ff;stroke:#0000ff;" x="366.673063" xlink:href="#md976cfe072" y="222.38"/>
     <use style="fill:#0000ff;stroke:#0000ff;" x="369.747443" xlink:href="#md976cfe072" y="222.38"/>
    </g>
   </g>
   <g id="line2d_14">
    <defs>
     <path d="M 0 3 
C 0.795609 3 1.55874 2.683901 2.12132 2.12132 
C 2.683901 1.55874 3 0.795609 3 0 
C 3 -0.795609 2.683901 -1.55874 2.12132 -2.12132 
C 1.55874 -2.683901 0.795609 -3 0 -3 
C -0.795609 -3 -1.55874 -2.683901 -2.12132 -2.12132 
C -2.683901 -1.55874 -3 -0.795609 -3 0 
C -3 0.795609 -2.683901 1.55874 -2.12132 2.12132 
C -1.55874 2.683901 -0.795609 3 0 3 
z
" id="md8661c0246" style="stroke:#ff0000;"/>
    </defs>
    <g clip-path="url(#pc7ef9cd12b)">
     <use style="fill:#ff0000;stroke:#ff0000;" x="65.383807" xlink:href="#md8661c0246" y="222.38"/>
     <use style="fill:#ff0000;stroke:#ff0000;" x="68.458187" xlink:href="#md8661c0246" y="222.379997"/>
     <use style="fill:#ff0000;stroke:#ff0000;" x="71.532567" xlink:href="#md8661c0246" y="222.379956"/>
     <use style="fill:#ff0000;stroke:#ff0000;" x="74.606947" xlink:href="#md8661c0246" y="222.379598"/>
     <use style="fill:#ff0000;stroke:#ff0000;" x="77.681327" xlink:href="#md8661c0246" y="222.377304"/>
     <use style="fill:#ff0000;stroke:#ff0000;" x="80.755708" xlink:href="#md8661c0246" y="222.365755"/>
     <use style="fill:#ff0000;stroke:#ff0000;" x="83.830088" xlink:href="#md8661c0246" y="222.318262"/>
     <use style="fill:#ff0000;stroke:#ff0000;" x="86.904468" xlink:href="#md8661c0246" y="222.154314"/>
     <use style="fill:#ff0000;stroke:#ff0000;" x="89.978848" xlink:href="#md8661c0246" y="221.669784"/>
     <use style="fill:#ff0000;stroke:#ff0000;" x="93.053228" xlink:href="#md8661c0246" y="220.425839"/>
     <use style="fill:#ff0000;stroke:#ff0000;" x="96.127608" xlink:href="#md8661c0246" y="217.620928"/>
     <use style="fill:#ff0000;stroke:#ff0000;" x="99.201989" xlink:href="#md8661c0246" y="212.02018"/>
     <use style="fill:#ff0000;stroke:#ff0000;" x="102.276369" xlink:href="#md8661c0246" y="202.058115"/>
     <use style="fill:#ff0000;stroke:#ff0000;" x="105.350749" xlink:href="#md8661c0246" y="186.214669"/>
     <use style="fill:#ff0000;stroke:#ff0000;" x="108.425129" xlink:href="#md8661c0246" y="163.655157"/>
     <use style="fill:#ff0000;stroke:#ff0000;" x="111.499509" xlink:href="#md8661c0246" y="134.946255"/>
     <use style="fill:#ff0000;stroke:#ff0000;" x="114.573889" xlink:href="#md8661c0246" y="102.512201"/>
     <use style="fill:#ff0000;stroke:#ff0000;" x="117.64827" xlink:href="#md8661c0246" y="70.502158"/>
     <use style="fill:#ff0000;stroke:#ff0000;" x="120.72265" xlink:href="#md8661c0246" y="43.952809"/>
     <use style="fill:#ff0000;stroke:#ff0000;" x="123.79703" xlink:href="#md8661c0246" y="27.465426"/>
     <use style="fill:#ff0000;stroke:#ff0000;" x="126.87141" xlink:href="#md8661c0246" y="23.886232"/>
     <use style="fill:#ff0000;stroke:#ff0000;" x="129.94579" xlink:href="#md8661c0246" y="33.514672"/>
     <use style="fill:#ff0000;stroke:#ff0000;" x="133.02017" xlink:href="#md8661c0246" y="54.135371"/>
     <use style="fill:#ff0000;stroke:#ff0000;" x="136.094551" xlink:href="#md8661c0246" y="81.805871"/>
     <use style="fill:#ff0000;stroke:#ff0000;" x="139.168931" xlink:href="#md8661c0246" y="112.033539"/>
     <use style="fill:#ff0000;stroke:#ff0000;" x="142.243311" xlink:href="#md8661c0246" y="140.882332"/>
     <use style="fill:#ff0000;stroke:#ff0000;" x="145.317691" xlink:href="#md8661c0246" y="165.671271"/>
     <use style="fill:#ff0000;stroke:#ff0000;" x="148.392071" xlink:href="#md8661c0246" y="185.157739"/>
     <use style="fill:#ff0000;stroke:#ff0000;" x="151.466451" xlink:href="#md8661c0246" y="199.307988"/>
     <use style="fill:#ff0000;stroke:#ff0000;" x="154.540832" xlink:href="#md8661c0246" y="208.861252"/>
     <use style="fill:#ff0000;stroke:#ff0000;" x="157.615212" xlink:href="#md8661c0246" y="214.885288"/>
     <use style="fill:#ff0000;stroke:#ff0000;" x="160.689592" xlink:href="#md8661c0246" y="218.445365"/>
     <use style="fill:#ff0000;stroke:#ff0000;" x="163.763972" xlink:href="#md8661c0246" y="220.422433"/>
     <use style="fill:#ff0000;stroke:#ff0000;" x="166.838352" xlink:href="#md8661c0246" y="221.456381"/>
     <use style="fill:#ff0000;stroke:#ff0000;" x="169.912732" xlink:href="#md8661c0246" y="221.966468"/>
     <use style="fill:#ff0000;stroke:#ff0000;" x="172.987113" xlink:href="#md8661c0246" y="222.204202"/>
     <use style="fill:#ff0000;stroke:#ff0000;" x="176.061493" xlink:href="#md8661c0246" y="222.309004"/>
     <use style="fill:#ff0000;stroke:#ff0000;" x="179.135873" xlink:href="#md8661c0246" y="222.352749"/>
     <use style="fill:#ff0000;stroke:#ff0000;" x="182.210253" xlink:href="#md8661c0246" y="222.370055"/>
     <use style="fill:#ff0000;stroke:#ff0000;" x="185.284633" xlink:href="#md8661c0246" y="222.376547"/>
     <use style="fill:#ff0000;stroke:#ff0000;" x="188.359013" xlink:href="#md8661c0246" y="222.378859"/>
     <use style="fill:#ff0000;stroke:#ff0000;" x="191.433394" xlink:href="#md8661c0246" y="222.379641"/>
     <use style="fill:#ff0000;stroke:#ff0000;" x="194.507774" xlink:href="#md8661c0246" y="222.379893"/>
     <use style="fill:#ff0000;stroke:#ff0000;" x="197.582154" xlink:href="#md8661c0246" y="222.379969"/>
     <use style="fill:#ff0000;stroke:#ff0000;" x="200.656534" xlink:href="#md8661c0246" y="222.379992"/>
     <use style="fill:#ff0000;stroke:#ff0000;" x="203.730914" xlink:href="#md8661c0246" y="222.379998"/>
     <use style="fill:#ff0000;stroke:#ff0000;" x="206.805294" xlink:href="#md8661c0246" y="222.379999"/>
     <use style="fill:#ff0000;stroke:#ff0000;" x="209.879675" xlink:href="#md8661c0246" y="222.38"/>
     <use style="fill:#ff0000;stroke:#ff0000;" x="212.954055" xlink:href="#md8661c0246" y="222.38"/>
     <use style="fill:#ff0000;stroke:#ff0000;" x="216.028435" xlink:href="#md8661c0246" y="222.38"/>
     <use style="fill:#ff0000;stroke:#ff0000;" x="219.102815" xlink:href="#md8661c0246" y="222.38"/>
     <use style="fill:#ff0000;stroke:#ff0000;" x="222.177195" xlink:href="#md8661c0246" y="222.38"/>
     <use style="fill:#ff0000;stroke:#ff0000;" x="225.251575" xlink:href="#md8661c0246" y="222.38"/>
     <use style="fill:#ff0000;stroke:#ff0000;" x="228.325956" xlink:href="#md8661c0246" y="222.38"/>
     <use style="fill:#ff0000;stroke:#ff0000;" x="231.400336" xlink:href="#md8661c0246" y="222.38"/>
     <use style="fill:#ff0000;stroke:#ff0000;" x="234.474716" xlink:href="#md8661c0246" y="222.38"/>
     <use style="fill:#ff0000;stroke:#ff0000;" x="237.549096" xlink:href="#md8661c0246" y="222.38"/>
     <use style="fill:#ff0000;stroke:#ff0000;" x="240.623476" xlink:href="#md8661c0246" y="222.38"/>
     <use style="fill:#ff0000;stroke:#ff0000;" x="243.697856" xlink:href="#md8661c0246" y="222.38"/>
     <use style="fill:#ff0000;stroke:#ff0000;" x="246.772237" xlink:href="#md8661c0246" y="222.38"/>
     <use style="fill:#ff0000;stroke:#ff0000;" x="249.846617" xlink:href="#md8661c0246" y="222.38"/>
     <use style="fill:#ff0000;stroke:#ff0000;" x="252.920997" xlink:href="#md8661c0246" y="222.38"/>
     <use style="fill:#ff0000;stroke:#ff0000;" x="255.995377" xlink:href="#md8661c0246" y="222.38"/>
     <use style="fill:#ff0000;stroke:#ff0000;" x="259.069757" xlink:href="#md8661c0246" y="222.38"/>
     <use style="fill:#ff0000;stroke:#ff0000;" x="262.144137" xlink:href="#md8661c0246" y="222.38"/>
     <use style="fill:#ff0000;stroke:#ff0000;" x="265.218518" xlink:href="#md8661c0246" y="222.38"/>
     <use style="fill:#ff0000;stroke:#ff0000;" x="268.292898" xlink:href="#md8661c0246" y="222.38"/>
     <use style="fill:#ff0000;stroke:#ff0000;" x="271.367278" xlink:href="#md8661c0246" y="222.38"/>
     <use style="fill:#ff0000;stroke:#ff0000;" x="274.441658" xlink:href="#md8661c0246" y="222.38"/>
     <use style="fill:#ff0000;stroke:#ff0000;" x="277.516038" xlink:href="#md8661c0246" y="222.38"/>
     <use style="fill:#ff0000;stroke:#ff0000;" x="280.590418" xlink:href="#md8661c0246" y="222.38"/>
     <use style="fill:#ff0000;stroke:#ff0000;" x="283.664799" xlink:href="#md8661c0246" y="222.38"/>
     <use style="fill:#ff0000;stroke:#ff0000;" x="286.739179" xlink:href="#md8661c0246" y="222.38"/>
     <use style="fill:#ff0000;stroke:#ff0000;" x="289.813559" xlink:href="#md8661c0246" y="222.38"/>
     <use style="fill:#ff0000;stroke:#ff0000;" x="292.887939" xlink:href="#md8661c0246" y="222.38"/>
     <use style="fill:#ff0000;stroke:#ff0000;" x="295.962319" xlink:href="#md8661c0246" y="222.38"/>
     <use style="fill:#ff0000;stroke:#ff0000;" x="299.036699" xlink:href="#md8661c0246" y="222.38"/>
     <use style="fill:#ff0000;stroke:#ff0000;" x="302.11108" xlink:href="#md8661c0246" y="222.38"/>
     <use style="fill:#ff0000;stroke:#ff0000;" x="305.18546" xlink:href="#md8661c0246" y="222.38"/>
     <use style="fill:#ff0000;stroke:#ff0000;" x="308.25984" xlink:href="#md8661c0246" y="222.38"/>
     <use style="fill:#ff0000;stroke:#ff0000;" x="311.33422" xlink:href="#md8661c0246" y="222.38"/>
     <use style="fill:#ff0000;stroke:#ff0000;" x="314.4086" xlink:href="#md8661c0246" y="222.38"/>
     <use style="fill:#ff0000;stroke:#ff0000;" x="317.48298" xlink:href="#md8661c0246" y="222.38"/>
     <use style="fill:#ff0000;stroke:#ff0000;" x="320.557361" xlink:href="#md8661c0246" y="222.38"/>
     <use style="fill:#ff0000;stroke:#ff0000;" x="323.631741" xlink:href="#md8661c0246" y="222.38"/>
     <use style="fill:#ff0000;stroke:#ff0000;" x="326.706121" xlink:href="#md8661c0246" y="222.38"/>
     <use style="fill:#ff0000;stroke:#ff0000;" x="329.780501" xlink:href="#md8661c0246" y="222.38"/>
     <use style="fill:#ff0000;stroke:#ff0000;" x="332.854881" xlink:href="#md8661c0246" y="222.38"/>
     <use style="fill:#ff0000;stroke:#ff0000;" x="335.929261" xlink:href="#md8661c0246" y="222.38"/>
     <use style="fill:#ff0000;stroke:#ff0000;" x="339.003642" xlink:href="#md8661c0246" y="222.38"/>
     <use style="fill:#ff0000;stroke:#ff0000;" x="342.078022" xlink:href="#md8661c0246" y="222.38"/>
     <use style="fill:#ff0000;stroke:#ff0000;" x="345.152402" xlink:href="#md8661c0246" y="222.38"/>
     <use style="fill:#ff0000;stroke:#ff0000;" x="348.226782" xlink:href="#md8661c0246" y="222.38"/>
     <use style="fill:#ff0000;stroke:#ff0000;" x="351.301162" xlink:href="#md8661c0246" y="222.38"/>
     <use style="fill:#ff0000;stroke:#ff0000;" x="354.375542" xlink:href="#md8661c0246" y="222.38"/>
     <use style="fill:#ff0000;stroke:#ff0000;" x="357.449923" xlink:href="#md8661c0246" y="222.38"/>
     <use style="fill:#ff0000;stroke:#ff0000;" x="360.524303" xlink:href="#md8661c0246" y="222.38"/>
     <use style="fill:#ff0000;stroke:#ff0000;" x="363.598683" xlink:href="#md8661c0246" y="222.38"/>
     <use style="fill:#ff0000;stroke:#ff0000;" x="366.673063" xlink:href="#md8661c0246" y="222.38"/>
     <use style="fill:#ff0000;stroke:#ff0000;" x="369.747443" xlink:href="#md8661c0246" y="222.38"/>
    </g>
   </g>
   <g id="patch_3">
    <path d="M 50.165625 232.46 
L 50.165625 10.7 
" style="fill:none;stroke:#000000;stroke-linecap:square;stroke-linejoin:miter;stroke-width:0.8;"/>
   </g>
   <g id="patch_4">
    <path d="M 384.965625 232.46 
L 384.965625 10.7 
" style="fill:none;stroke:#000000;stroke-linecap:square;stroke-linejoin:miter;stroke-width:0.8;"/>
   </g>
   <g id="patch_5">
    <path d="M 50.165625 232.46 
L 384.965625 232.46 
" style="fill:none;stroke:#000000;stroke-linecap:square;stroke-linejoin:miter;stroke-width:0.8;"/>
   </g>
   <g id="patch_6">
    <path d="M 50.165625 10.7 
L 384.965625 10.7 
" style="fill:none;stroke:#000000;stroke-linecap:square;stroke-linejoin:miter;stroke-width:0.8;"/>
   </g>
  </g>
 </g>
 <defs>
  <clipPath id="pc7ef9cd12b">
   <rect height="221.76" width="334.8" x="50.165625" y="10.7"/>
  </clipPath>
 </defs>
</svg>
